<?xml version="1.0" standalone="no"?><!DOCTYPE svg PUBLIC "-//W3C//DTD SVG 1.1//EN" "http://www.w3.org/Graphics/SVG/1.1/DTD/svg11.dtd"><svg t="1667316384389" class="icon" viewBox="0 0 1024 1024" version="1.1" xmlns="http://www.w3.org/2000/svg" p-id="5304" width="40" height="40" xmlns:xlink="http://www.w3.org/1999/xlink"><path d="M821.9 422.4l-12.2-94.8c-9.1-70.4-64.6-125.9-135-135L580 180.5c-6.6-0.9-13.3-1.3-20-1.3-41.7 0-81 16.3-110.5 45.8L196.4 478c-56 56-56 147.2 0 203.2L321.1 806c27.1 27.1 63.2 42.1 101.6 42.1 38.4 0 74.5-14.9 101.6-42.1l253.1-253.1c16.8-16.8 29.7-37.6 37.4-60.1 7.7-22.4 10.2-46.8 7.1-70.4z m-72.7 102.2L496.1 777.7c-19.6 19.6-45.6 30.4-73.3 30.4-27.7 0-53.7-10.8-73.3-30.4L224.7 653c-40.4-40.4-40.4-106.2 0-146.7l253.1-253.1c21.6-21.6 51.6-34.1 82.2-34.1 5 0 10 0.3 14.9 1l94.8 12.2c52.4 6.8 93.7 48.1 100.4 100.4l12.2 94.8c4.5 35.5-7.8 71.8-33.1 97.1z" p-id="5305" fill="#5f5f5f"></path><path d="M607.1 312.3c-22.2 0-43 8.6-58.7 24.3-15.7 15.7-24.3 36.5-24.3 58.7s8.6 43 24.3 58.7c15.7 15.7 36.5 24.3 58.7 24.3 22.2 0 43-8.6 58.7-24.3 15.7-15.7 24.3-36.5 24.3-58.7s-8.6-43-24.3-58.7c-15.7-15.6-36.5-24.3-58.7-24.3z m30.4 113.4c-8.1 8.1-18.9 12.6-30.4 12.6s-22.3-4.5-30.4-12.6c-8.1-8.1-12.6-18.9-12.6-30.4s4.5-22.3 12.6-30.4c8.1-8.1 18.9-12.6 30.4-12.6s22.3 4.5 30.4 12.6c8.1 8.1 12.6 18.9 12.6 30.4s-4.5 22.3-12.6 30.4zM493.2 558.4l-94.3 94.3c-7.8 7.8-7.8 20.5 0 28.3 3.9 3.9 9 5.9 14.1 5.9s10.2-2 14.1-5.9l94.3-94.3c7.8-7.8 7.8-20.5 0-28.3s-20.4-7.8-28.2 0zM444 480.9c-7.8-7.8-20.5-7.8-28.3 0l-94.3 94.3c-7.8 7.8-7.8 20.5 0 28.3 3.9 3.9 9 5.9 14.1 5.9s10.2-2 14.1-5.9l94.3-94.3c7.9-7.8 7.9-20.4 0.1-28.3z" p-id="5306" fill="#5f5f5f"></path></svg>