<?xml version="1.0" standalone="no"?><!DOCTYPE svg PUBLIC "-//W3C//DTD SVG 1.1//EN" "http://www.w3.org/Graphics/SVG/1.1/DTD/svg11.dtd"><svg t="1667314426285" class="icon" viewBox="0 0 1024 1024" version="1.1" xmlns="http://www.w3.org/2000/svg" p-id="1444" width="40" height="40" xmlns:xlink="http://www.w3.org/1999/xlink"><path d="M659.911111 227.555556c62.839467 0 113.777778 50.938311 113.777778 113.777777v341.333334c0 62.839467-50.938311 113.777778-113.777778 113.777777H364.088889c-62.839467 0-113.777778-50.938311-113.777778-113.777777V341.333333c0-62.839467 50.938311-113.777778 113.777778-113.777777h295.822222z m0 34.133333H364.088889c-43.394844 0-78.677333 34.702222-79.627378 77.863822L284.444444 341.333333v341.333334c0 43.389156 34.702222 78.677333 77.863823 79.627377L364.088889 762.311111h295.822222c43.389156 0 78.677333-34.702222 79.627378-77.863822L739.555556 682.666667V341.333333c0-43.394844-34.702222-78.677333-77.863823-79.627377L659.911111 261.688889z" fill="#5f5f5f" p-id="1445"></path><path d="M364.088889 580.266667m-17.066667 0a17.066667 17.066667 0 1 0 34.133334 0 17.066667 17.066667 0 1 0-34.133334 0Z" fill="#5f5f5f" p-id="1446"></path><path d="M364.088889 438.044444m-17.066667 0a17.066667 17.066667 0 1 0 34.133334 0 17.066667 17.066667 0 1 0-34.133334 0Z" fill="#5f5f5f" p-id="1447"></path><path d="M438.044444 420.977778m17.066667 0l204.8 0q17.066667 0 17.066667 17.066666l0 0q0 17.066667-17.066667 17.066667l-204.8 0q-17.066667 0-17.066667-17.066667l0 0q0-17.066667 17.066667-17.066666Z" fill="#5f5f5f" p-id="1448"></path><path d="M438.044444 563.2m17.066667 0l204.8 0q17.066667 0 17.066667 17.066667l0 0q0 17.066667-17.066667 17.066666l-204.8 0q-17.066667 0-17.066667-17.066666l0 0q0-17.066667 17.066667-17.066667Z" fill="#5f5f5f" p-id="1449"></path></svg>