<?xml version="1.0" standalone="no"?><!DOCTYPE svg PUBLIC "-//W3C//DTD SVG 1.1//EN" "http://www.w3.org/Graphics/SVG/1.1/DTD/svg11.dtd"><svg t="1667318321977" class="icon" viewBox="0 0 1024 1024" version="1.1" xmlns="http://www.w3.org/2000/svg" p-id="1284" width="40" height="40" xmlns:xlink="http://www.w3.org/1999/xlink"><path d="M840.4 542.8c-1.8-1-2.9-3-2.7-5.1 1.4-17.9 1.3-36-0.2-53.9-0.2-2.1 0.9-4.1 2.7-5.1h0.1c33.2-19 47-60 32.3-95.3l-15.9-38c-11.9-28.3-39.4-46.7-70.1-46.7-6.9 0-13.7 0.9-20.3 2.8h-0.1c-2 0.6-4.2-0.1-5.5-1.7-11.7-13.7-24.5-26.5-38.2-38-1.6-1.3-2.3-3.5-1.7-5.5 10-36.9-9.1-75.7-44.5-90.2l-38.1-15.6c-9.2-3.8-18.9-5.7-28.8-5.7-27.4 0-52.8 14.8-66.2 38.7-1 1.8-3 2.9-5.1 2.7-8.5-0.7-17.1-1-25.7-1-9.4 0-18.9 0.4-28.3 1.2-2.1 0.2-4.1-0.9-5.1-2.7-13.5-23.6-38.8-38.2-66-38.2-10.1 0-20 2-29.3 5.9l-38 15.9c-35.3 14.8-54.1 53.6-43.9 90.4v0.1c0.6 2-0.1 4.2-1.7 5.5-13.7 11.6-26.5 24.5-38 38.2-1.3 1.6-3.5 2.3-5.5 1.7-6.5-1.8-13.2-2.7-19.9-2.7-31 0-58.6 18.5-70.3 47.2l-15.6 38.1c-14.5 35.4-0.3 76.3 33 95 1.8 1 2.9 3 2.7 5.1-1.4 17.9-1.3 36 0.2 53.9 0.2 2.1-0.9 4.1-2.7 5.1l-23.5 13.5c-19.8 11.4-28.1 35.8-19.3 56.8l26.4 63c11.9 28.3 39.4 46.7 70.1 46.7 6.9 0 13.8-0.9 20.5-2.8 2-0.6 4.2 0.1 5.5 1.7 11.6 13.7 24.5 26.4 38.2 38 1.6 1.3 2.3 3.5 1.7 5.5-10 36.9 9.1 75.7 44.5 90.2l38.1 15.6c9.2 3.8 18.9 5.7 28.8 5.7 27.4 0 52.8-14.8 66.2-38.7 1-1.8 3-2.9 5.1-2.7 8.5 0.7 17.1 1 25.7 1 9.4 0 18.9-0.4 28.2-1.2 2.1-0.2 4.1 0.9 5.1 2.7 13.5 23.6 38.8 38.2 66 38.2 10.1 0 20-2 29.3-5.9l38-15.9c35.3-14.8 54.1-53.7 43.9-90.6-0.5-2 0.1-4.1 1.7-5.5 13.7-11.6 26.4-24.5 38-38.2 1.3-1.6 3.5-2.2 5.5-1.7 6.5 1.8 13.2 2.7 19.9 2.7 31 0 58.6-18.5 70.3-47.2l15.6-38.1c14.4-35.2 0.2-76.1-33.1-94.9z m-4 79.9l-15.6 38.1c-5.6 13.6-18.6 22.4-33.3 22.4-3.2 0-6.4-0.4-9.4-1.3-3.9-1.1-7.9-1.6-11.9-1.6-13.4 0-26.1 5.9-34.7 16.2-10.1 12-21.3 23.3-33.3 33.5-13.4 11.4-19 29.8-14.3 46.7 4.9 17.5-4.1 35.9-20.8 42.9l-38 15.9c-4.4 1.9-9.1 2.8-13.9 2.8-12.9 0-24.9-6.9-31.3-18.1-8.1-14.1-23.1-22.8-39.3-22.8-1.3 0-2.6 0.1-4 0.2-8.2 0.7-16.5 1.1-24.8 1.1-7.5 0-15-0.3-22.5-0.9-1.2-0.1-2.4-0.1-3.6-0.1-16.3 0-31.5 8.8-39.5 23.1-6.4 11.3-18.4 18.3-31.4 18.3-4.7 0-9.3-0.9-13.6-2.7l-38.1-15.6c-16.8-6.9-25.8-25.2-21.1-42.7 4.6-17-1.1-35.3-14.6-46.6-12-10.1-23.3-21.3-33.5-33.3-8.6-10.1-21.2-15.9-34.5-15.9-4.1 0-8.2 0.6-12.2 1.7-3.2 0.9-6.4 1.3-9.7 1.3-14.5 0-27.6-8.7-33.2-22.1l-26.4-63c-1-2.5-0.1-5.4 2.3-6.7l23.5-13.5c15.3-8.8 24.1-25.7 22.6-43.3-1.4-15.7-1.4-31.6-0.2-47.3 1.4-17.5-7.6-34.4-22.9-43.1-15.8-8.9-22.5-28.2-15.6-45l15.6-38.1c5.6-13.6 18.6-22.4 33.3-22.4 3.2 0 6.4 0.4 9.4 1.3 3.9 1.1 7.9 1.6 11.9 1.6 13.4 0 26.1-5.9 34.7-16.2 10.1-12 21.3-23.3 33.3-33.5 13.4-11.4 19-29.7 14.3-46.6v-0.1c-4.9-17.5 4.1-35.9 20.8-42.9l38-15.9c4.4-1.9 9.1-2.8 13.9-2.8 12.9 0 24.9 6.9 31.3 18.1 8.1 14.1 23.1 22.8 39.3 22.8 1.3 0 2.6-0.1 4-0.2 8.2-0.7 16.5-1.1 24.8-1.1 7.5 0 15 0.3 22.5 0.9 1.2 0.1 2.4 0.1 3.6 0.1 16.3 0 31.5-8.8 39.5-23.1 6.4-11.3 18.4-18.3 31.4-18.3 4.7 0 9.3 0.9 13.6 2.7l38.1 15.6c16.8 6.9 25.8 25.2 21.1 42.7-4.6 17 1.1 35.3 14.6 46.6 12 10.1 23.3 21.3 33.5 33.3 8.6 10.1 21.2 15.9 34.5 15.9 4.1 0 8.1-0.5 12-1.6h0.2c3.2-0.9 6.4-1.3 9.7-1.3 14.5 0 27.6 8.7 33.2 22.1l15.9 38c7 16.7 0.4 36.1-15.3 45.1h-0.1c-15.2 8.8-24.1 25.7-22.6 43.3 1.4 15.7 1.4 31.6 0.2 47.3-1.4 17.5 7.6 34.4 22.9 43.1 15.8 8.9 22.6 28.2 15.7 45z" p-id="1285" fill="#5f5f5f"></path><path d="M571.4 367.2c-19-7.8-38.9-11.7-59.3-11.7-30.7 0-60.5 8.9-86.2 25.9-26.4 17.4-46.6 42-58.7 71.3-32.7 79.9 5.6 171.5 85.5 204.2 19 7.8 38.9 11.7 59.3 11.7 30.7 0 60.5-8.9 86.2-25.9 26.4-17.4 46.6-42 58.7-71.3 32.7-79.9-5.7-171.5-85.5-204.2z m48.4 189c-18 44-60.4 72.4-107.9 72.4-15.1 0-30-2.9-44.1-8.7-28.8-11.9-51.3-34.2-63.3-62.9s-12.1-60.4-0.3-89.2c18-44 60.4-72.4 107.9-72.4 15.1 0 30 2.9 44.1 8.7 59.4 24.5 88 92.6 63.6 152.1z" p-id="1286" fill="#5f5f5f"></path></svg>